<svg width="86" height="14" viewBox="0 0 86 14" fill="none" xmlns="http://www.w3.org/2000/svg">
<path d="M45.9822 0.201318C45.1442 0.440204 44.4505 0.879651 43.8239 1.64741C43.8239 1.23095 43.8015 0.951191 43.8296 0.676535C43.8629 0.35653 43.7268 0.286908 43.4394 0.304792C43.0817 0.327148 42.7182 0.339283 42.3625 0.302237C41.9537 0.26008 41.8508 0.395493 41.8521 0.806198C41.8694 4.67692 41.8611 8.54828 41.8636 12.419C41.8643 12.9064 41.6937 13.5764 41.9422 13.8344C42.2545 14.1596 42.9278 13.897 43.4419 13.9449C43.7345 13.9718 43.8482 13.8875 43.8309 13.5726C43.8035 13.068 43.8239 12.5602 43.8239 12.0543C43.8239 11.0023 43.8239 9.95094 43.8239 8.84721C45.3486 10.2952 46.2275 10.3866 47.8109 10.3125C49.3534 10.2403 50.4789 9.43612 51.3769 8.2468C52.6033 6.6225 52.565 3.60066 51.2287 1.93165C49.9647 0.352059 47.8345 -0.326276 45.9822 0.201318ZM47.1274 8.53103C45.2981 8.56489 43.7843 7.07281 43.8233 5.20068C43.7351 3.37838 45.3351 1.84989 47.0789 1.87097C48.9778 1.89396 50.4112 3.37582 50.3907 5.25497C50.3716 7.0875 48.9727 8.49654 47.1274 8.53103Z" fill="#003A77"/>
<path d="M30.4547 0.303496C30.0817 0.334794 29.701 0.336072 29.328 0.303496C28.9633 0.270921 28.8796 0.421662 28.9109 0.748054C28.9358 1.01057 28.916 1.27756 28.916 1.59629C28.4663 1.25457 28.2166 0.831728 27.7797 0.614559C26.7762 0.11507 25.7498 -0.081021 24.6141 0.0978243C22.8672 0.37248 21.6472 1.35166 20.9388 2.87631C19.9807 4.93878 20.3697 7.64893 22.2387 9.19913C23.5142 10.2575 24.9245 10.5009 26.4952 10.2473C27.4578 10.0921 28.1993 9.5664 28.8598 8.85102C29.0239 9.29111 28.6886 9.8698 29.038 10.0659C29.3746 10.255 29.8977 10.1132 30.3384 10.117C30.4036 10.1176 30.4707 10.1087 30.5345 10.1183C30.8258 10.1636 30.8878 10.0244 30.8826 9.75738C30.8673 8.98963 30.8775 8.22123 30.8775 7.45347C30.8775 5.21471 30.8699 2.97532 30.8858 0.736557C30.8878 0.395474 30.8047 0.274115 30.4547 0.303496ZM28.916 5.2524C28.9262 7.08429 27.4443 8.56295 25.6099 8.53166C23.771 8.49972 22.3338 7.06704 22.3434 5.15595C22.353 3.33173 23.8189 1.885 25.6623 1.87797C27.5248 1.87031 29.0182 3.44734 28.916 5.2524Z" fill="#003A77"/>
<path d="M63.5967 0.327162C63.0448 0.300335 62.454 0.217939 61.9539 0.383371C61.7137 0.462574 61.9085 1.07129 61.8676 1.43792C61.8644 1.46602 61.8478 1.49285 61.821 1.56375C61.5304 1.29229 61.296 1.00677 61.0015 0.81196C59.9738 0.130432 58.8605 -0.0892915 57.6175 0.0940249C55.829 0.357822 54.6595 1.38299 53.8554 2.90637C53.3112 3.93664 53.3431 5.08125 53.4657 6.17987C53.5909 7.30021 54.1568 8.29088 54.9923 9.0497C55.8469 9.82576 56.8363 10.3253 58.0646 10.3342C59.1109 10.3419 60.0747 10.2205 60.9594 9.62073C61.2768 9.40547 61.5029 9.08867 61.8708 8.84978C61.8708 9.18384 61.8874 9.45849 61.8664 9.73059C61.844 10.0155 61.913 10.149 62.2355 10.1234C62.6086 10.094 62.9873 10.0959 63.361 10.1228C63.6682 10.1451 63.7449 10.0385 63.7417 9.73954C63.7257 8.43396 63.7346 7.12775 63.7346 5.82154C63.7346 4.12379 63.7372 2.42604 63.7295 0.728287C63.7276 0.589043 63.8375 0.339298 63.5967 0.327162ZM61.8702 5.15918C61.8402 7.1565 60.4841 8.49784 58.6005 8.52594C56.7507 8.55341 55.334 7.16416 55.2983 5.19367C55.2644 3.32665 56.8619 1.86651 58.5673 1.87098C60.4209 1.87609 61.9181 3.43971 61.8702 5.15918Z" fill="#003A77"/>
<path d="M85.1008 2.43435C84.5221 1.45134 83.7282 0.704664 82.6309 0.309288C81.6785 -0.0337114 80.7064 -0.0618154 79.7291 0.125972C78.9192 0.281184 78.1789 0.616519 77.5446 1.16008C75.8469 2.61512 75.4949 4.51087 75.919 6.56759C76.2512 8.18103 77.2527 9.32948 78.8144 9.9631C79.7604 10.347 80.7313 10.4019 81.727 10.3138C83.0262 10.1988 84.1447 9.72677 84.9539 8.662C85.4553 8.00219 85.4483 7.99836 84.715 7.61193C84.4468 7.47077 84.1932 7.2389 83.9122 7.20058C83.5545 7.15204 83.5002 7.60106 83.2709 7.78821C83.2338 7.81823 83.1846 7.83229 83.1489 7.86359C82.5018 8.42312 81.7347 8.57769 80.905 8.55022C79.427 8.50168 78.1393 7.69943 77.7739 6.09685C77.9949 6.09685 78.1738 6.09685 78.3526 6.09685C80.6731 6.09685 82.9943 6.0911 85.3148 6.1026C85.6636 6.10451 85.7971 6.01573 85.8105 5.63888C85.8513 4.50321 85.6814 3.41992 85.1008 2.43435ZM83.5366 4.43103C82.6226 4.42592 81.7085 4.42912 80.7939 4.42912C79.8958 4.42912 78.9984 4.42209 78.1003 4.43295C77.7861 4.43678 77.742 4.38313 77.834 4.04843C78.1865 2.76585 79.4691 1.84672 80.9242 1.85183C82.1729 1.85566 83.5238 2.78055 83.7863 4.10081C83.847 4.40612 83.7857 4.43231 83.5366 4.43103Z" fill="#003A77"/>
<path d="M11.0134 0.973541C9.78191 0.0716495 8.4195 -0.176179 6.95041 0.116999C4.6861 0.568584 3.31474 2.21332 2.92895 4.30262C2.89126 4.5051 2.93597 4.64178 3.20169 4.63029C3.64177 4.61112 4.08442 4.60857 4.5245 4.6322C4.74231 4.6437 4.8394 4.51915 4.86814 4.36969C5.01569 3.60704 5.43917 3.02132 6.03063 2.55696C7.6741 1.26608 9.97737 1.84477 10.7815 3.78652C10.9438 4.17807 10.7611 4.2528 10.4711 4.32625C7.88743 4.9784 5.28204 5.45361 2.59872 5.31309C2.17971 5.29138 1.77923 5.22814 1.39535 5.03333C1.09131 4.87876 1.11686 4.74654 1.30912 4.51659C1.51926 4.26493 1.86226 4.27962 2.19376 4.0005C1.54673 4.09567 1.0747 4.24641 0.623759 4.50638C-0.276216 5.02503 -0.153579 5.87326 0.679329 6.39255C1.29379 6.77579 1.99448 6.94634 2.68751 6.96103C4.19364 6.99296 5.69913 7.01532 7.20654 6.80326C8.87555 6.5682 10.5145 6.21626 12.0941 5.66184C13.3205 5.23134 13.2566 5.58328 13.0165 4.14996C12.7948 2.83034 12.105 1.7726 11.0134 0.973541Z" fill="#003A77"/>
<path d="M38.4617 4.79191C37.4238 4.43485 36.3379 4.2311 35.3396 3.73991C34.6082 3.37967 34.6766 2.55315 35.2489 2.15969C36.1406 1.54523 37.8243 1.73812 38.3538 2.83099C38.4572 3.04497 38.5652 3.11012 38.7958 2.9696C39.1918 2.72944 39.6076 2.51929 40.0209 2.30915C40.1582 2.23889 40.2374 2.19226 40.1173 2.03194C39.8976 1.73812 39.743 1.37788 39.4767 1.14091C38.6176 0.37826 37.5841 0.0307892 36.3513 0.0116272C35.2732 0.0448413 34.2327 0.340574 33.4106 1.24821C32.6639 2.07282 32.6365 3.97624 33.4336 4.71718C34.0979 5.33419 34.888 5.55583 35.6947 5.80302C36.4107 6.02211 37.144 6.1837 37.8006 6.57589C38.4783 6.98021 38.5479 7.84313 37.8869 8.22957C36.8438 8.83956 34.9212 8.69009 34.2346 7.28616C34.0972 7.00639 33.9816 7.05302 33.8066 7.14691C33.4266 7.35131 33.058 7.57614 32.6793 7.78245C32.4857 7.88785 32.4104 7.96641 32.5234 8.22318C32.7687 8.78079 33.1558 9.20555 33.6431 9.52683C35.2565 10.5916 36.9901 10.6293 38.7134 9.90369C39.9468 9.38376 40.4182 8.45249 40.3728 7.27083C40.3319 6.1754 39.8823 5.28054 38.4617 4.79191Z" fill="#003A77"/>
<path d="M74.7001 7.55504C74.329 7.37109 73.9803 7.14051 73.6271 6.92078C73.4054 6.78281 73.2796 6.7579 73.1059 7.0415C72.5125 8.00918 71.6042 8.44671 70.5305 8.46332C70.222 8.41605 69.9678 8.46077 69.7046 8.40264C68.1071 8.05262 66.8846 6.33187 67.2448 4.56449C67.568 2.97852 68.8583 1.94122 70.3708 1.88948C71.5525 1.84924 72.4748 2.38577 73.1135 3.3822C73.2061 3.52655 73.2425 3.67027 73.4527 3.54571C73.8506 3.30938 74.2556 3.08583 74.6535 2.85013C74.7685 2.78179 74.8343 2.71345 74.7576 2.53716C74.5405 2.03958 74.2345 1.59119 73.8302 1.26097C73.0694 0.640117 72.2155 0.228772 71.1999 0.088251C69.4261 -0.157023 67.9008 0.301588 66.6744 1.56181C65.6314 2.63296 65.2296 3.97814 65.291 5.49002C65.3593 7.17755 66.0772 8.47801 67.4243 9.44952C68.4814 10.2122 69.6714 10.4287 70.961 10.3214C72.6549 10.1796 73.8972 9.35052 74.8145 7.96511C74.9314 7.78818 74.9307 7.67001 74.7001 7.55504Z" fill="#003A77"/>
<path d="M19.4631 0.1106C18.436 0.150201 17.5775 0.527055 16.8526 1.4513C16.8526 1.12938 16.834 0.934566 16.8564 0.744224C16.896 0.413999 16.7976 0.274116 16.438 0.302859C16.0324 0.335434 15.6217 0.325215 15.2142 0.305415C14.951 0.29264 14.8853 0.387171 14.8859 0.639471C14.8936 3.69262 14.8942 6.74576 14.8853 9.79891C14.8846 10.0672 14.9785 10.1317 15.2251 10.1215C15.6326 10.1049 16.0426 10.0978 16.4489 10.1234C16.7657 10.1432 16.8628 10.0467 16.8596 9.72098C16.843 8.08838 16.873 6.45514 16.8462 4.82317C16.8187 3.1663 17.8994 2.1488 19.4631 2.08237C19.709 2.07215 19.8118 2.02297 19.7997 1.75662C19.7792 1.31653 19.7792 0.874525 19.7997 0.434438C19.8124 0.167447 19.7122 0.10038 19.4631 0.1106Z" fill="#003A77"/>
<path d="M11.2057 7.85528C11.0588 8.08139 10.8416 8.28834 10.611 8.4295C8.92028 9.46233 6.79969 9.18065 5.55416 7.68218C5.44749 7.5538 5.37084 7.45671 5.17602 7.4631C4.60564 7.48098 4.03397 7.46948 3.41504 7.46948C4.12212 9.10783 6.15776 10.8343 8.97649 10.3138C10.7023 9.99567 12.4506 8.50359 12.7763 6.90421C12.1644 7.07475 11.5825 7.27595 11.2057 7.85528Z" fill="#003A77"/>
</svg>
